<?xml version="1.0" encoding="utf-8"?>
<!-- Generator: Adobe Illustrator 26.4.0, SVG Export Plug-In . SVG Version: 6.00 Build 0)  -->
<svg version="1.1" id="Layer_1" xmlns="http://www.w3.org/2000/svg" xmlns:xlink="http://www.w3.org/1999/xlink" x="0px" y="0px"
	 viewBox="0 0 103.3 99.7" style="enable-background:new 0 0 103.3 99.7;" xml:space="preserve">
<style type="text/css">
	.st0{fill:#FFFFFF;stroke:#FFFFFF;stroke-miterlimit:10;}
	.st1{fill:#FFD968;}
	.st2{fill:#33B7C2;}
	.st3{fill:#242A36;}
</style>
<g id="Layer_2_00000176043256344106610550000005866144519527273611_">
	<g id="Layer_1-2">
		<path class="st0" d="M35.5,0.5h32.3c19.3,0,35,15.7,35,35v28.7c0,19.3-15.7,35-35,35H35.5c-19.3,0-35-15.7-35-35V35.5
			C0.5,16.2,16.2,0.5,35.5,0.5z"/>
		<rect x="22.5" y="60.3" class="st1" width="21.6" height="26.4"/>
		<rect x="48.5" y="9.7" class="st2" width="32.3" height="32.3"/>
		<g>
			<path class="st3" d="M50.6,60.4H39.9v23.8H26.5V19.1h24.2c7.7,0,13.6,1.7,17.8,5.1c4.2,3.4,6.3,8.3,6.3,14.5
				c0,4.4-1,8.2-2.9,11.1c-1.9,3-4.8,5.3-8.7,7.1l14.1,26.6v0.6H62.8L50.6,60.4z M39.9,49.5h10.8c3.4,0,6-0.9,7.8-2.6
				c1.8-1.7,2.8-4.1,2.8-7.1c0-3.1-0.9-5.5-2.6-7.2c-1.7-1.8-4.4-2.6-8-2.6H39.9V49.5z"/>
		</g>
	</g>
</g>
</svg>
