<?xml version="1.0" encoding="UTF-8"?>
<svg id="Layer_1" data-name="Layer 1" xmlns="http://www.w3.org/2000/svg" viewBox="0 0 578.22 507.47">
  <defs>
    <style>
      .cls-1 {
        fill: #018844;
      }

      .cls-2 {
        fill: #084;
      }
    </style>
  </defs>
  <rect class="cls-2" x="166.74" y="169.46" width="251.19" height="34.11"/>
  <g>
    <polygon class="cls-1" points="463.65 136.57 497.43 117.52 433.66 7.1 307.73 7.1 307.73 45.85 411.29 45.85 463.65 136.57"/>
    <polygon class="cls-1" points="44.75 257.49 96.56 167.83 63.11 148.28 0 257.49 61.03 363.11 94.8 344.12 44.75 257.49"/>
    <polygon class="cls-1" points="114.19 377.57 80.42 396.51 144.56 507.47 268.98 507.47 268.98 468.72 166.92 468.72 114.19 377.57"/>
    <polygon class="cls-1" points="516.82 151.23 483.04 170.23 533.46 257.49 481.28 347.82 514.73 367.37 578.22 257.49 516.82 151.23"/>
  </g>
  <rect class="cls-2" x="187.23" y="240.98" width="89.17" height="34.11"/>
  <rect class="cls-2" x="276.16" y="306.11" width="104.05" height="34.11"/>
  <circle class="cls-1" cx="159.78" cy="50" r="50"/>
  <circle class="cls-1" cx="410.86" cy="450.27" r="50"/>
</svg>