<?xml version="1.0" encoding="UTF-8"?>
<svg id="Layer_1" data-name="Layer 1" xmlns="http://www.w3.org/2000/svg" viewBox="0 0 250 250">
  <defs>
    <style>
      .cls-1 {
        fill: #fdd66e;
      }

      .cls-2 {
        fill: #fff;
      }

      .cls-3 {
        fill: #1b2634;
      }

      .cls-4 {
        fill: #27bcc2;
      }
    </style>
  </defs>
  <rect class="cls-2" width="250" height="250"/>
  <rect class="cls-1" x="33.16" y="161.81" width="67.5" height="82.41"/>
  <rect class="cls-4" x="114.14" y="4.17" width="100.75" height="100.75"/>
  <path class="cls-3" d="M120.8,162.12h-33.35v74.38H45.58V33.32H121.08c24,0,42.51,5.35,55.54,16.05,13.02,10.7,19.54,25.82,19.54,45.35,0,13.86-3,25.42-9,34.68-6,9.26-15.1,16.63-27.28,22.12l43.96,83.03v1.95h-44.93l-38.1-74.38Zm-33.35-33.91h33.77c10.51,0,18.65-2.67,24.42-8.02,5.77-5.35,8.65-12.72,8.65-22.12s-2.72-17.12-8.16-22.61c-5.44-5.49-13.79-8.23-25.05-8.23h-33.63v60.98Z"/>
</svg>