<?xml version="1.0" encoding="UTF-8"?>
<svg id="Layer_1" data-name="Layer 1" xmlns="http://www.w3.org/2000/svg" viewBox="0 0 250 250">
  <defs>
    <style>
      .cls-1 {
        fill: #e535ab;
      }

      .cls-2 {
        fill: #b7c2d7;
      }
    </style>
  </defs>
  <rect class="cls-2" width="250" height="250"/>
  <g>
    <rect class="cls-1" x="-19.42" y="93.57" width="200.89" height="10.41" transform="translate(-45.03 119.55) rotate(-60)"/>
    <rect class="cls-1" x="24.22" y="169.26" width="200.89" height="10.41"/>
    <rect class="cls-1" x="75.84" y="141.59" width="10.41" height="116.03" transform="translate(-132.34 169.99) rotate(-60)"/>
    <rect class="cls-1" x="163.13" y="-9.61" width="10.41" height="116.03" transform="translate(42.25 169.98) rotate(-60)"/>
    <rect class="cls-1" x="23.06" y="43.16" width="116.03" height="10.41" transform="translate(-13.32 47.02) rotate(-30)"/>
    <rect class="cls-1" x="163.2" y="-1.67" width="10.41" height="200.89" transform="translate(-26.83 97.44) rotate(-30)"/>
    <rect class="cls-1" x="32.19" y="65.96" width="10.41" height="116.03"/>
    <rect class="cls-1" x="206.8" y="65.96" width="10.41" height="116.03"/>
    <rect class="cls-1" x="117.88" y="195" width="100.92" height="9.09" transform="translate(-77.22 110.91) rotate(-30)"/>
    <path class="cls-1" d="M231.01,185.38c-6.02,10.47-19.44,14.05-29.92,8.03-10.47-6.02-14.05-19.44-8.03-29.92,6.02-10.47,19.44-14.05,29.92-8.03,10.54,6.08,14.11,19.44,8.03,29.92"/>
    <path class="cls-1" d="M56.27,84.46c-6.02,10.47-19.44,14.05-29.92,8.03-10.47-6.02-14.05-19.44-8.03-29.92,6.02-10.47,19.44-14.05,29.92-8.03,10.47,6.08,14.05,19.44,8.03,29.92"/>
    <path class="cls-1" d="M18.39,185.38c-6.02-10.47-2.45-23.83,8.03-29.92,10.47-6.02,23.83-2.45,29.92,8.03,6.02,10.47,2.45,23.83-8.03,29.92-10.54,6.02-23.9,2.45-29.92-8.03"/>
    <path class="cls-1" d="M193.13,84.46c-6.02-10.47-2.45-23.83,8.03-29.92,10.47-6.02,23.83-2.45,29.92,8.03,6.02,10.47,2.45,23.83-8.03,29.92-10.47,6.02-23.9,2.45-29.92-8.03"/>
    <path class="cls-1" d="M124.7,246.78c-12.11,0-21.89-9.78-21.89-21.89s9.78-21.89,21.89-21.89,21.89,9.78,21.89,21.89-9.78,21.89-21.89,21.89"/>
    <path class="cls-1" d="M124.7,44.95c-12.11,0-21.89-9.78-21.89-21.89S112.6,1.17,124.7,1.17s21.89,9.78,21.89,21.89-9.78,21.89-21.89,21.89"/>
  </g>
</svg>