<?xml version="1.0" encoding="UTF-8"?>
<svg id="Layer_1" data-name="Layer 1" xmlns="http://www.w3.org/2000/svg" viewBox="0 0 290 70">
  <defs>
    <style>
      .cls-1 {
        fill: #fbbf25;
      }

      .cls-2 {
        fill: #ef4444;
      }

      .cls-3 {
        fill: #b7c2d7;
      }

      .cls-4 {
        fill: #202a3b;
      }

      .cls-5 {
        fill: #22c55e;
      }
    </style>
  </defs>
  <rect class="cls-4" width="290" height="70" rx="11.98" ry="11.98"/>
  <g>
    <path class="cls-3" d="M23.26,47.57c.04-.3,.02-.57-.06-.79-.08-.22-.2-.42-.37-.58s-.36-.31-.58-.43c-.22-.12-.46-.24-.71-.34-.5-.21-.99-.44-1.44-.69-.46-.26-.85-.56-1.19-.9-.34-.35-.6-.75-.79-1.2-.18-.46-.26-.99-.22-1.6,.04-.61,.18-1.15,.43-1.62,.25-.47,.57-.87,.96-1.2,.39-.33,.84-.6,1.35-.79,.51-.19,1.05-.32,1.62-.37l.39-2.09h1.52l-.39,2.13c.57,.11,1.05,.31,1.45,.59,.4,.28,.72,.62,.96,1.02,.24,.4,.42,.85,.52,1.34,.1,.5,.14,1.01,.12,1.56h-2.63c.01-.28,0-.56-.03-.84-.04-.28-.11-.54-.22-.76-.11-.23-.28-.41-.49-.55-.21-.14-.49-.22-.83-.22-.29,0-.55,.03-.79,.11-.24,.08-.46,.2-.65,.36-.19,.16-.34,.35-.46,.58-.12,.23-.2,.48-.24,.77-.04,.3-.01,.56,.08,.78,.09,.22,.22,.4,.39,.56,.17,.16,.37,.3,.59,.42,.23,.12,.46,.23,.71,.34,.5,.21,.97,.45,1.43,.71,.45,.26,.85,.57,1.18,.91,.34,.35,.6,.75,.78,1.2,.18,.46,.25,.99,.21,1.6-.04,.62-.18,1.17-.44,1.64s-.58,.87-.98,1.19c-.4,.33-.86,.58-1.37,.77-.52,.18-1.06,.31-1.64,.36l-.35,1.9h-1.51l.36-1.92c-.62-.08-1.15-.26-1.6-.51-.45-.26-.83-.59-1.12-.99-.29-.4-.51-.86-.65-1.37-.14-.52-.19-1.08-.17-1.68h2.64c-.02,.34,0,.65,.06,.94,.06,.29,.16,.55,.31,.77,.15,.22,.34,.39,.59,.52,.25,.13,.55,.2,.92,.2,.28,0,.56-.03,.83-.11,.27-.08,.5-.19,.72-.34,.21-.15,.39-.34,.53-.57,.14-.23,.23-.49,.27-.79Z"/>
    <path class="cls-3" d="M43.29,40.83l-.17,1.48c.41-.5,.89-.91,1.43-1.22,.54-.31,1.15-.45,1.83-.44,.61,.01,1.11,.14,1.51,.38,.4,.24,.71,.56,.94,.95,.23,.39,.38,.84,.45,1.34,.07,.5,.08,1.02,.02,1.56l-1.08,6.47h-2.63l1.07-6.44c.03-.3,.03-.58,0-.83-.03-.25-.1-.46-.21-.65-.11-.18-.27-.32-.49-.43-.21-.1-.48-.16-.81-.17-.43,0-.82,.08-1.16,.27-.34,.18-.65,.44-.93,.76l-1.31,7.48h-2.64l1.83-10.5h2.37Z"/>
    <path class="cls-3" d="M60.84,46.13c-.05,.43-.14,.86-.25,1.3-.12,.44-.27,.86-.45,1.27-.18,.41-.4,.79-.66,1.14-.26,.35-.55,.65-.88,.91-.33,.26-.71,.46-1.12,.61-.41,.15-.87,.21-1.36,.2-.49-.01-.93-.11-1.34-.3-.41-.18-.77-.46-1.08-.84l-.94,4.97h-2.63l2.52-14.54h2.41s-.17,1.04-.17,1.04c.37-.4,.78-.71,1.23-.93,.45-.22,.95-.32,1.5-.31,.48,.01,.9,.1,1.25,.25,.36,.15,.66,.36,.92,.62,.26,.26,.46,.56,.62,.91,.16,.34,.28,.71,.36,1.09,.08,.38,.13,.78,.14,1.19,0,.41,0,.81-.04,1.21l-.02,.21Zm-2.62-.21c.03-.3,.05-.62,.05-.98s-.05-.68-.14-.99c-.09-.31-.25-.57-.46-.78-.21-.21-.52-.32-.92-.33-.43-.01-.8,.07-1.13,.26-.33,.19-.62,.45-.87,.79l-.78,4.41c.14,.37,.35,.64,.63,.81,.27,.17,.61,.26,.99,.28,.44,.01,.82-.08,1.13-.28,.31-.2,.57-.46,.78-.78,.21-.32,.37-.68,.48-1.07,.11-.39,.19-.77,.23-1.13l.02-.2Z"/>
    <path class="cls-3" d="M68.26,44.11l2.75-3.27h2.97l-4.31,5.26,2.65,5.24h-2.69l-1.81-3.43-2.85,3.43h-2.99l4.47-5.46-2.55-5.05h2.69l1.68,3.27Z"/>
    <path class="cls-3" d="M86.45,46.08c.05-.44,.14-.88,.26-1.33,.12-.45,.28-.87,.48-1.28s.42-.79,.69-1.14c.27-.35,.57-.65,.92-.91,.35-.26,.73-.45,1.16-.59,.42-.14,.89-.2,1.39-.19,.5,.01,.97,.11,1.41,.3,.43,.19,.8,.49,1.09,.9l.35-1.02h2.42s-1.73,10.17-1.73,10.17c-.1,.71-.31,1.35-.63,1.91-.32,.56-.72,1.04-1.2,1.42-.48,.39-1.03,.68-1.66,.87s-1.29,.29-2,.27c-.35,0-.7-.05-1.04-.12-.34-.07-.67-.18-.99-.33-.32-.14-.62-.32-.9-.53-.28-.21-.53-.46-.74-.73l1.35-1.61c.29,.38,.63,.67,1.02,.88s.83,.32,1.31,.33c.38,.01,.72-.03,1.04-.14,.32-.11,.6-.26,.84-.47,.25-.2,.45-.45,.62-.74,.17-.29,.29-.61,.37-.98l.14-.62c-.37,.36-.77,.63-1.2,.83-.43,.2-.91,.29-1.43,.28-.47,0-.88-.09-1.24-.24-.36-.16-.67-.36-.93-.63s-.48-.56-.65-.91c-.17-.34-.3-.71-.4-1.09-.09-.38-.15-.78-.17-1.19s0-.81,.03-1.19l.03-.2Zm2.62,.2c-.02,.2-.03,.42-.04,.65,0,.23,0,.46,.03,.68,.03,.22,.07,.44,.14,.64,.06,.2,.16,.39,.28,.54,.12,.16,.28,.29,.46,.39,.18,.1,.41,.15,.67,.16,.43,.01,.82-.07,1.15-.25s.63-.44,.89-.77l.8-4.48c-.16-.35-.37-.61-.65-.77-.28-.16-.61-.25-.98-.26-.44,0-.82,.09-1.15,.29-.32,.2-.59,.45-.81,.77-.22,.32-.39,.67-.51,1.06-.13,.39-.21,.77-.26,1.14l-.02,.2Z"/>
    <path class="cls-3" d="M106.48,40.63c.34,0,.67,.03,.99,.08,.33,.05,.66,.12,.99,.2l-.72,2.69c-.34-.08-.67-.15-1.01-.2-.34-.05-.68-.08-1.03-.08-1.37-.01-2.42,.56-3.15,1.71l-1.1,6.32h-2.63l1.83-10.5h2.45l-.27,1.73c.23-.28,.48-.55,.75-.79,.27-.24,.55-.45,.85-.62,.3-.17,.63-.3,.97-.4,.34-.09,.7-.14,1.08-.14Z"/>
    <path class="cls-3" d="M115.6,51.34c-.05-.17-.08-.33-.09-.49,0-.16-.01-.32,0-.49-.41,.38-.85,.67-1.34,.88-.48,.2-1.01,.3-1.58,.3-.44,0-.86-.08-1.26-.23-.4-.15-.74-.35-1.04-.61-.3-.26-.52-.58-.68-.96-.16-.38-.23-.8-.21-1.26,.02-.47,.11-.88,.27-1.23s.37-.67,.63-.93c.26-.27,.56-.49,.89-.66,.34-.18,.7-.32,1.08-.43,.38-.11,.78-.19,1.18-.23,.4-.05,.8-.07,1.2-.07l1.51,.02,.13-.65c.04-.25,.03-.48-.02-.68-.06-.2-.15-.37-.28-.51-.13-.14-.3-.25-.5-.32-.2-.07-.43-.11-.68-.12-.45-.01-.83,.09-1.14,.31-.3,.22-.5,.55-.59,1l-2.63,.02c.04-.58,.2-1.09,.5-1.51,.29-.42,.66-.77,1.1-1.05,.44-.28,.93-.48,1.46-.6,.53-.13,1.06-.19,1.59-.18,.55,.01,1.07,.1,1.56,.26,.49,.16,.92,.4,1.28,.7,.36,.31,.63,.69,.82,1.14,.18,.45,.25,.98,.19,1.58l-.73,4.51c-.06,.38-.1,.77-.13,1.17-.03,.4,.02,.79,.16,1.16v.17h-2.62Zm-2.32-1.88c.46,.01,.89-.08,1.3-.28,.4-.2,.75-.48,1.04-.82l.33-1.82h-1.19c-.29,0-.59,.02-.88,.08-.3,.06-.57,.15-.83,.29-.25,.13-.47,.31-.64,.53-.18,.22-.29,.5-.33,.84-.03,.2-.01,.38,.04,.52,.05,.15,.13,.27,.24,.37,.11,.1,.24,.17,.4,.22,.16,.05,.33,.08,.52,.08Z"/>
    <path class="cls-3" d="M130.85,46.13c-.05,.43-.14,.86-.25,1.3-.12,.44-.27,.86-.45,1.27-.18,.41-.4,.79-.66,1.14s-.55,.65-.88,.91c-.33,.26-.71,.46-1.12,.61-.41,.15-.87,.21-1.36,.2-.49-.01-.93-.11-1.34-.3-.41-.18-.77-.46-1.08-.84l-.94,4.97h-2.63l2.52-14.54h2.41s-.16,1.04-.16,1.04c.37-.4,.78-.71,1.23-.93,.45-.22,.95-.32,1.5-.31,.48,.01,.9,.1,1.25,.25,.36,.15,.66,.36,.92,.62,.26,.26,.46,.56,.62,.91,.16,.34,.28,.71,.36,1.09,.08,.38,.13,.78,.14,1.19,0,.41,0,.81-.04,1.21l-.02,.21Zm-2.62-.21c.03-.3,.05-.62,.05-.98s-.05-.68-.14-.99c-.09-.31-.25-.57-.46-.78-.21-.21-.52-.32-.92-.33-.43-.01-.8,.07-1.13,.26-.33,.19-.62,.45-.87,.79l-.78,4.41c.14,.37,.35,.64,.63,.81,.27,.17,.61,.26,.99,.28,.44,.01,.82-.08,1.13-.28,.31-.2,.57-.46,.78-.78,.21-.32,.37-.68,.48-1.07,.11-.39,.19-.77,.23-1.13l.02-.2Z"/>
    <path class="cls-3" d="M136.56,42.31c.38-.49,.83-.89,1.33-1.2s1.09-.46,1.73-.46c.62,0,1.14,.13,1.56,.38,.42,.25,.74,.57,.98,.98,.24,.4,.39,.87,.47,1.38,.07,.52,.08,1.05,.02,1.6l-1.06,6.36h-2.64l1.08-6.39c.03-.29,.03-.56,0-.81-.03-.25-.1-.47-.22-.66-.12-.19-.28-.34-.49-.45-.21-.11-.47-.17-.79-.18-.43-.01-.81,.06-1.16,.22-.35,.16-.67,.39-.97,.68l-1.34,7.59h-2.63l2.59-14.91h2.63l-1.12,5.87Z"/>
    <path class="cls-3" d="M144.79,46.07c.08-.66,.23-1.32,.45-1.97,.22-.65,.53-1.24,.92-1.76,.39-.52,.86-.94,1.43-1.25,.56-.31,1.22-.46,1.98-.44,.51,.01,.98,.12,1.41,.33,.43,.21,.79,.52,1.08,.94l.41-1.08h2.35l-2.52,14.54h-2.64l.96-4.94c-.36,.36-.76,.63-1.18,.82s-.9,.29-1.41,.27c-.47,0-.88-.09-1.23-.25-.36-.16-.66-.37-.92-.63-.26-.26-.46-.57-.62-.91-.16-.35-.28-.71-.36-1.1-.08-.38-.13-.78-.15-1.19s0-.8,.04-1.18l.02-.2Zm2.61,.2c-.02,.19-.03,.4-.04,.63-.01,.23,0,.45,.01,.68,.02,.23,.06,.45,.12,.66,.06,.21,.14,.4,.26,.56,.11,.17,.26,.3,.44,.4,.18,.1,.4,.16,.67,.16,.43,.01,.8-.08,1.13-.27s.62-.45,.87-.78l.8-4.49c-.15-.34-.36-.6-.63-.76-.27-.16-.6-.25-.97-.26-.44,0-.82,.09-1.13,.29-.31,.2-.57,.46-.78,.78-.21,.32-.37,.67-.48,1.06s-.19,.77-.24,1.14l-.02,.2Z"/>
    <path class="cls-3" d="M158.93,36.43h5.71l-2.2,12.72h2.92l-.39,2.19h-8.63l.39-2.19h3.05l1.83-10.51h-3.06l.39-2.2Z"/>
    <path class="cls-3" d="M177.54,46.2h-7.85l.38-2.18h7.86l-.39,2.18Z"/>
    <path class="cls-3" d="M179.79,46.07c.05-.43,.14-.87,.25-1.31,.12-.44,.27-.86,.45-1.27,.18-.41,.4-.79,.66-1.14,.26-.35,.55-.66,.89-.91,.34-.26,.71-.45,1.13-.6,.41-.14,.87-.21,1.38-.19,.49,.01,.93,.11,1.32,.31,.4,.19,.75,.47,1.05,.85l1.01-5.37h2.64l-2.58,14.91h-2.36l.14-1.1c-.37,.41-.78,.73-1.24,.96-.46,.23-.97,.34-1.54,.33-.47-.01-.87-.1-1.22-.26s-.65-.37-.9-.63c-.25-.26-.46-.56-.62-.91-.16-.34-.29-.71-.37-1.09-.08-.38-.13-.78-.15-1.18-.02-.4,0-.8,.03-1.18l.03-.21Zm2.61,.21c-.03,.29-.05,.61-.05,.96,0,.35,.04,.68,.13,.99,.09,.31,.24,.57,.45,.78,.21,.21,.51,.32,.91,.33,.45,.01,.84-.09,1.16-.3,.33-.21,.62-.48,.87-.82l.76-4.27c-.27-.72-.81-1.1-1.6-1.14-.44,0-.82,.09-1.13,.29-.31,.2-.57,.46-.78,.78-.21,.32-.37,.67-.48,1.06-.11,.39-.19,.77-.23,1.14l-.02,.2Z"/>
    <path class="cls-3" d="M195.89,51.54c-.72-.01-1.37-.15-1.95-.41-.58-.26-1.07-.62-1.47-1.07-.4-.45-.69-.98-.88-1.59s-.25-1.27-.18-1.98l.04-.4c.08-.74,.28-1.44,.59-2.11,.31-.67,.71-1.25,1.21-1.75,.5-.5,1.07-.89,1.73-1.18s1.38-.43,2.15-.41c.73,.02,1.36,.17,1.89,.46,.53,.29,.96,.67,1.29,1.14,.33,.48,.55,1.02,.67,1.64,.12,.62,.14,1.26,.05,1.94l-.18,1.15h-6.86c-.01,.34,.03,.65,.13,.94,.1,.29,.24,.54,.42,.75,.18,.21,.41,.38,.68,.51,.27,.13,.58,.19,.93,.2,.55,.02,1.07-.08,1.56-.29,.49-.21,.92-.51,1.3-.9l1.19,1.47c-.23,.34-.52,.63-.85,.86s-.69,.44-1.08,.59c-.39,.16-.79,.27-1.2,.34s-.82,.1-1.2,.1Zm1.06-8.72c-.35-.01-.66,.05-.94,.17-.28,.13-.53,.3-.74,.52-.22,.22-.41,.47-.57,.75-.16,.28-.3,.56-.43,.84h4.28l.05-.24c.05-.28,.04-.55-.02-.8-.06-.25-.16-.46-.31-.64-.15-.18-.33-.33-.55-.43-.22-.11-.48-.17-.77-.18Z"/>
    <path class="cls-3" d="M212.56,46.14c-.05,.43-.14,.87-.25,1.32-.11,.44-.26,.87-.44,1.27-.18,.4-.4,.78-.65,1.13-.25,.35-.54,.65-.87,.9-.33,.25-.7,.45-1.12,.59-.42,.14-.88,.2-1.38,.19-.52-.01-1-.13-1.44-.34-.44-.22-.8-.54-1.09-.98l-.39,1.13h-2.39l2.58-14.91h2.64l-1.03,5.37c.36-.38,.75-.67,1.18-.87,.43-.2,.91-.3,1.44-.29,.48,.01,.9,.1,1.26,.25,.36,.16,.67,.36,.92,.62,.26,.26,.46,.56,.62,.91,.16,.35,.28,.71,.35,1.1s.12,.79,.13,1.2c.01,.41,0,.81-.04,1.21l-.03,.2Zm-2.61-.2c.02-.2,.04-.42,.05-.65,.01-.23,.01-.46,0-.68-.02-.23-.05-.45-.11-.66-.06-.21-.14-.4-.25-.56-.11-.16-.26-.29-.44-.39-.18-.1-.41-.15-.68-.16-.46-.01-.86,.09-1.19,.3-.34,.21-.63,.5-.87,.86l-.73,4.21c.13,.39,.33,.67,.61,.86,.28,.18,.62,.28,1.03,.3,.45,.01,.83-.08,1.14-.27s.56-.45,.76-.76,.35-.66,.45-1.05c.1-.39,.18-.77,.22-1.15l.02-.2Z"/>
    <path class="cls-3" d="M221,49.86c-.19,.25-.4,.47-.62,.68-.22,.21-.46,.39-.71,.54-.25,.15-.52,.27-.81,.35-.29,.08-.59,.12-.91,.12-.43,0-.8-.07-1.12-.19-.32-.12-.6-.29-.83-.5-.23-.21-.42-.46-.57-.75-.15-.29-.26-.59-.33-.92-.08-.33-.12-.68-.13-1.04-.01-.36,0-.72,.04-1.09l1.04-6.21h2.63l-1.04,6.24c-.03,.27-.05,.54-.05,.81,0,.27,.03,.51,.11,.72,.07,.21,.2,.39,.38,.52,.18,.14,.44,.21,.78,.21,.47,.01,.89-.08,1.26-.28,.37-.2,.68-.48,.96-.86l1.29-7.38h2.64l-1.83,10.5h-2.38l.2-1.48Z"/>
    <path class="cls-3" d="M226.48,46.08c.05-.44,.14-.88,.26-1.33s.28-.87,.48-1.28,.42-.79,.69-1.14,.57-.65,.92-.91c.35-.26,.73-.45,1.16-.59,.42-.14,.89-.2,1.39-.19,.5,.01,.97,.11,1.41,.3,.43,.19,.8,.49,1.09,.9l.35-1.02h2.42s-1.73,10.17-1.73,10.17c-.1,.71-.31,1.35-.63,1.91s-.72,1.04-1.2,1.42-1.03,.68-1.66,.87-1.29,.29-2,.27c-.35,0-.7-.05-1.04-.12-.34-.07-.67-.18-.99-.33-.32-.14-.62-.32-.9-.53-.28-.21-.53-.46-.74-.73l1.35-1.61c.29,.38,.63,.67,1.02,.88s.83,.32,1.31,.33c.38,.01,.72-.03,1.04-.14,.32-.11,.6-.26,.85-.47,.25-.2,.45-.45,.62-.74,.17-.29,.29-.61,.37-.98l.14-.62c-.37,.36-.77,.63-1.2,.83-.43,.2-.91,.29-1.43,.28-.47,0-.88-.09-1.24-.24-.36-.16-.67-.36-.93-.63s-.48-.56-.65-.91c-.17-.34-.3-.71-.4-1.09-.09-.38-.15-.78-.17-1.19-.02-.41-.01-.81,.03-1.19l.03-.2Zm2.62,.2c-.02,.2-.03,.42-.04,.65,0,.23,0,.46,.03,.68,.03,.22,.07,.44,.14,.64,.06,.2,.16,.39,.28,.54,.12,.16,.28,.29,.46,.39,.18,.1,.41,.15,.67,.16,.43,.01,.82-.07,1.15-.25s.63-.44,.89-.77l.8-4.48c-.16-.35-.37-.61-.65-.77-.28-.16-.61-.25-.98-.26-.44,0-.82,.09-1.15,.29-.32,.2-.59,.45-.81,.77-.22,.32-.39,.67-.51,1.06-.13,.39-.21,.77-.26,1.14l-.02,.2Z"/>
    <path class="cls-3" d="M238.15,46.08c.05-.44,.14-.88,.26-1.33s.28-.87,.48-1.28,.42-.79,.69-1.14,.57-.65,.92-.91c.35-.26,.73-.45,1.16-.59,.42-.14,.89-.2,1.39-.19,.5,.01,.97,.11,1.41,.3,.43,.19,.8,.49,1.09,.9l.35-1.02h2.42s-1.73,10.17-1.73,10.17c-.1,.71-.31,1.35-.63,1.91s-.72,1.04-1.2,1.42-1.03,.68-1.66,.87-1.29,.29-2,.27c-.35,0-.7-.05-1.04-.12-.34-.07-.67-.18-.99-.33-.32-.14-.62-.32-.9-.53-.28-.21-.53-.46-.74-.73l1.35-1.61c.29,.38,.63,.67,1.02,.88s.83,.32,1.31,.33c.38,.01,.72-.03,1.04-.14,.32-.11,.6-.26,.85-.47,.25-.2,.45-.45,.62-.74,.17-.29,.29-.61,.37-.98l.14-.62c-.37,.36-.77,.63-1.2,.83-.43,.2-.91,.29-1.43,.28-.47,0-.88-.09-1.24-.24-.36-.16-.67-.36-.93-.63s-.48-.56-.65-.91c-.17-.34-.3-.71-.4-1.09-.09-.38-.15-.78-.17-1.19-.02-.41-.01-.81,.03-1.19l.03-.2Zm2.62,.2c-.02,.2-.03,.42-.04,.65,0,.23,0,.46,.03,.68,.03,.22,.07,.44,.14,.64,.06,.2,.16,.39,.28,.54,.12,.16,.28,.29,.46,.39,.18,.1,.41,.15,.67,.16,.43,.01,.82-.07,1.15-.25s.63-.44,.89-.77l.8-4.48c-.16-.35-.37-.61-.65-.77-.28-.16-.61-.25-.98-.26-.44,0-.82,.09-1.15,.29-.32,.2-.59,.45-.81,.77-.22,.32-.39,.67-.51,1.06-.13,.39-.21,.77-.26,1.14l-.02,.2Z"/>
    <path class="cls-3" d="M254.23,51.54c-.72-.01-1.37-.15-1.95-.41-.58-.26-1.07-.62-1.47-1.07-.4-.45-.69-.98-.88-1.59s-.25-1.27-.18-1.98l.04-.4c.08-.74,.28-1.44,.59-2.11,.31-.67,.71-1.25,1.21-1.75,.5-.5,1.07-.89,1.73-1.18,.66-.29,1.38-.43,2.15-.41,.73,.02,1.36,.17,1.89,.46,.53,.29,.96,.67,1.29,1.14,.33,.48,.55,1.02,.67,1.64,.12,.62,.14,1.26,.05,1.94l-.18,1.15h-6.86c-.01,.34,.03,.65,.13,.94,.1,.29,.24,.54,.42,.75,.18,.21,.41,.38,.68,.51,.27,.13,.58,.19,.93,.2,.55,.02,1.07-.08,1.56-.29,.49-.21,.92-.51,1.3-.9l1.19,1.47c-.23,.34-.52,.63-.85,.86s-.69,.44-1.08,.59c-.39,.16-.79,.27-1.2,.34s-.82,.1-1.2,.1Zm1.06-8.72c-.35-.01-.66,.05-.94,.17-.28,.13-.53,.3-.74,.52-.22,.22-.41,.47-.57,.75-.16,.28-.3,.56-.43,.84h4.28l.05-.24c.05-.28,.04-.55-.02-.8-.06-.25-.16-.46-.31-.64-.15-.18-.33-.33-.55-.43-.22-.11-.48-.17-.77-.18Z"/>
    <path class="cls-3" d="M269.85,40.63c.34,0,.67,.03,.99,.08,.33,.05,.66,.12,.99,.2l-.72,2.69c-.34-.08-.67-.15-1.01-.2-.34-.05-.68-.08-1.03-.08-1.37-.01-2.42,.56-3.15,1.71l-1.1,6.32h-2.63l1.83-10.5h2.45l-.27,1.73c.23-.28,.48-.55,.75-.79,.26-.24,.55-.45,.85-.62,.3-.17,.63-.3,.97-.4,.34-.09,.7-.14,1.08-.14Z"/>
  </g>
  <circle class="cls-2" cx="22.1" cy="18.5" r="4.5"/>
  <circle class="cls-1" cx="36.5" cy="18.5" r="4.5"/>
  <circle class="cls-5" cx="51.5" cy="18.5" r="4.5"/>
</svg>