<?xml version="1.0" encoding="UTF-8"?>
<svg id="Layer_1" data-name="Layer 1" xmlns="http://www.w3.org/2000/svg" viewBox="0 0 181.73 240.05">
  <defs>
    <style>
      .cls-1 {
        fill: #fdd66e;
      }

      .cls-2 {
        fill: #1b2634;
      }

      .cls-3 {
        fill: #27bcc2;
      }
    </style>
  </defs>
  <rect class="cls-1" y="157.64" width="67.5" height="82.41"/>
  <rect class="cls-3" x="80.98" width="100.75" height="100.75"/>
  <path class="cls-2" d="M87.64,157.95H54.29v74.38H12.42V29.15H87.92c24,0,42.51,5.35,55.54,16.05,13.02,10.7,19.54,25.82,19.54,45.35,0,13.86-3,25.42-9,34.68s-15.1,16.63-27.28,22.12l43.96,83.03v1.95h-44.93l-38.1-74.38h-.01Zm-33.35-33.91h33.77c10.51,0,18.65-2.67,24.42-8.02,5.77-5.35,8.65-12.72,8.65-22.12s-2.72-17.12-8.16-22.61-13.79-8.23-25.05-8.23H54.29v60.98h0Z"/>
</svg>