<?xml version="1.0" encoding="UTF-8"?>
<svg id="Layer_1" data-name="Layer 1" xmlns="http://www.w3.org/2000/svg" viewBox="0 0 250 250">
  <defs>
    <style>
      .cls-1 {
        fill: transparent;
      }

      .cls-2 {
        fill: none;
        stroke: #008844;
        stroke-miterlimit: 10;
        stroke-width: 2px;
      }
    </style>
  </defs>
  <rect class="cls-1" width="250" height="250"/>
  <path class="cls-2" d="M28.35,204.82v-19.99h5.4v35.66h9.73c9,0,9.73,.2,9.73,2.16s-.72,2.16-12.43,2.16h-12.43v-19.99h0Zm31.34,4.86c0-14.41,.1-15.13,2.16-15.13s2.16,.73,2.16,15.13-.1,15.13-2.16,15.13-2.16-.73-2.16-15.13Zm15.69,12.55c-5.54-5.54-6.01-18.41-.91-24.48,2.84-3.38,8.23-4.98,12.85-3.82,3.35,.85,8.02,5.26,8.02,7.59,0,2.66-4.72,2.06-5.96-.77-1.13-2.57-4.51-3.56-8.63-2.53-6.86,1.72-6.09,21.08,.91,22.84,3.14,.79,6.68-.87,8.29-3.86,1.37-2.55,5.39-2.88,5.39-.42,0,.93-1.42,3.13-3.16,4.86-2.67,2.67-4.02,3.16-8.69,3.16-4.39,0-6.07-.52-8.11-2.58h0Zm28.62-.49c-5.67-5.67-5.69-17.95-.04-24.27,2.77-3.1,3.72-3.46,9.01-3.46,4.39,0,6.54,.56,8.34,2.16,2.89,2.57,5.37,8.05,5.37,11.85v2.74h-21.88l.68,3.51c1.32,6.82,8.45,9.45,13.93,5.13,3.36-2.65,6.71-2.91,5.76-.44-.36,.95-.66,1.9-.66,2.13,0,1.45-7.25,3.72-11.92,3.72s-6.04-.5-8.61-3.06h0Zm17.28-16.46c0-1.63-2.26-5.72-3.67-6.67-.65-.44-2.65-.79-4.43-.79-3.84,0-5.19,.79-6.86,3.95-2.23,4.23-1.59,4.66,6.86,4.66,5.02,0,8.1-.44,8.1-1.15h0Zm11.89,4.38c0-14.41,.1-15.13,2.16-15.13,1.47,0,2.16,.73,2.16,2.26,0,2.17,.12,2.15,3.32-.54,4.4-3.7,9.86-3.76,13.47-.2,2.52,2.52,2.65,3.29,2.65,15.67s-.12,13.02-2.16,13.02-2.16-.73-2.16-10.74c0-14.11-.84-16.28-6.29-16.28-6.75,0-8.02,2.33-8.62,15.68-.45,10.17-.71,11.34-2.52,11.34s-2.02-1.07-2.02-15.13v.06Zm33.89,13.87c-1.27-.63-2.84-2.28-3.49-3.71-1.03-2.26-.91-2.59,.96-2.59,1.18,0,3.11,.97,4.3,2.16,1.4,1.41,3.6,2.16,6.28,2.16,5.27,0,8.09-2.02,7.6-5.46-.29-2.09-1.39-2.94-5.24-4.06-8.39-2.44-11.9-4.42-13-7.32-3.37-8.87,11.38-14.62,20.04-7.81,3.14,2.47,3.37,3.63,.91,4.57-1.09,.42-2.58-.2-3.82-1.51-2.44-2.62-9.66-3-11.64-.63-2.6,3.14-.79,5.21,6.66,7.63,9.19,2.98,10.59,4.17,10.56,9.04-.02,4.53-.7,5.82-3.96,7.54-2.89,1.51-13,1.51-16.16,0h0Zm31.18-.43c-5.46-3.82-7.4-14.69-4.06-22.7,3.02-7.24,15.07-9.16,20.89-3.34,2.5,2.5,5.06,11.71,3.65,13.13-.3,.3-5.09,.54-10.63,.54q-10.09,0-10.09,2.75c0,6.55,9.43,10.51,14.05,5.89,1.19-1.19,2.89-2.16,3.78-2.16,2.56,0,1.89,2.87-1.23,5.32-3.53,2.77-12.75,3.09-16.37,.54h0Zm15.55-18.38c-.36-.95-.66-2.12-.66-2.62,0-2.21-3.7-4.31-7.58-4.31-4.42,0-7.55,2.79-7.55,6.72,0,1.67,1.06,1.92,8.22,1.92s8.13-.24,7.56-1.72h0Zm-154.1-19.35c0-1.98,.58-2.7,2.16-2.7s2.16,.73,2.16,2.7-.58,2.7-2.16,2.7-2.16-.73-2.16-2.7ZM17.54,115.76v-5.94H4.57v-11.89h12.97v-11.89H4.57V5H107.23V85.93l-6.21,.32-6.21,.32-.33,5.67-.33,5.67h13.08v11.89h-12.97v11.89h-12.97v-11.89h12.97v-11.89h-13.08l.33-5.67,.33-5.67,6.21-.32,6.21-.32v-10.59l-6.21-.32-6.21-.32-.29-21.88-.29-21.88h-15.08V121.71h-19.45V30.94H30.51v44.3h-12.97v10.81h12.97v11.89h-12.97v11.89h12.97v11.89h-12.97v-5.94h0ZM122.36,63.35V5h25.93V121.7h-25.93V63.35h0Zm82.12,52.41v-5.94h-11.89v-11.89h11.89v-11.89h-12.43s.31-27.56,.31-27.56l.31-27.56h-29.25V5h83.27l-.3,12.7-.3,12.7-14.32,.3-14.32,.3v44.24h-13.09l.33,5.13,.33,5.13,6.21,.32,6.21,.32v11.67l-6.21,.32-6.21,.32v10.8l6.21,.32,6.21,.32v11.78h-12.97v-5.94h0Z"/>
</svg>