<?xml version="1.0" encoding="UTF-8"?>
<svg id="Layer_1" data-name="Layer 1" xmlns="http://www.w3.org/2000/svg" viewBox="0 0 250 250">
  <defs>
    <style>
      .cls-1 {
        fill: #f5a800;
      }

      .cls-2 {
        fill: transparent;
      }

      .cls-3 {
        fill: #425cc7;
      }
    </style>
  </defs>
  <rect class="cls-2" width="250" height="250"/>
  <path class="cls-1" d="M129.55,130.15c-9.69,9.69-9.69,25.33,0,34.95,9.69,9.69,25.33,9.69,34.95,0,9.69-9.69,9.69-25.33,0-34.95-9.69-9.62-25.26-9.62-34.95,0Zm26.13,26.2c-4.81,4.81-12.56,4.81-17.31,0-4.81-4.81-4.81-12.56,0-17.31,4.81-4.81,12.56-4.81,17.31,0,4.81,4.75,4.81,12.5,0,17.31ZM164.1,8.51l-15.17,15.17c-2.94,2.94-2.94,7.82,0,10.83l59.15,59.15c2.94,2.94,7.82,2.94,10.83,0l15.17-15.17c2.94-2.94,2.94-7.82,0-10.83L174.93,8.51c-3.01-3.01-7.89-3.01-10.83,0ZM57.97,202.12c2.67-2.67,2.67-7.08,0-9.76l-7.69-7.69c-2.67-2.67-7.08-2.67-9.76,0l-15.97,15.84-4.34-4.34c-2.41-2.41-6.35-2.41-8.76,0s-2.41,6.35,0,8.76l26.27,26.27c2.41,2.41,6.35,2.41,8.76,0s2.41-6.35,0-8.76l-4.34-4.34,15.84-15.97Z"/>
  <path class="cls-3" d="M138.11,51.95l-33.68,33.68c-3.01,3.01-3.01,7.89,0,10.89l20.78,20.78c14.7-10.56,35.29-9.29,48.52,3.94l16.84-16.84c3.01-3.01,3.01-7.89,0-10.89l-41.57-41.57c-3.01-2.94-7.89-2.94-10.89,0h0Zm-21.59,74.18l-12.3-12.3c-2.87-2.87-7.55-2.87-10.43,0l-43.31,43.31c-2.87,2.87-2.87,7.55,0,10.43l24.53,24.53c2.87,2.87,7.55,2.87,10.43,0l27.87-27.87c-5.88-12.16-4.81-26.87,3.21-38.09h0Z"/>
</svg>