<?xml version="1.0" encoding="UTF-8"?>
<svg id="Layer_1" data-name="Layer 1" xmlns="http://www.w3.org/2000/svg" viewBox="0 0 250.36 250">
  <defs>
    <style>
      .cls-1 {
        fill: #007acc;
      }

      .cls-2 {
        fill: #fff;
      }
    </style>
  </defs>
  <rect class="cls-2" width="250" height="250"/>
  <g>
    <polygon class="cls-1" points=".43 125.04 .43 250 125.39 250 250.36 250 250.36 125.04 250.36 .08 125.39 .08 .43 .08 .43 125.04"/>
    <path class="cls-2" d="M55.7,125.87l-.08,10.23h32.53v92.43h23.01v-92.43h32.53v-10.04c0-5.55-.12-10.2-.28-10.31-.12-.16-19.91-.24-43.91-.2l-43.68,.12-.12,10.2Z"/>
    <path class="cls-2" d="M202.1,115.38c6.35,1.59,11.19,4.4,15.63,9.01,2.3,2.46,5.71,6.94,5.99,8.01,.08,.32-10.79,7.62-17.38,11.7-.24,.16-1.19-.87-2.26-2.46-3.21-4.68-6.59-6.7-11.74-7.06-7.58-.52-12.46,3.45-12.42,10.08,0,1.94,.28,3.09,1.07,4.68,1.67,3.45,4.76,5.51,14.48,9.72,17.89,7.7,25.55,12.77,30.31,19.99,5.32,8.05,6.51,20.91,2.9,30.47-3.97,10.39-13.81,17.45-27.65,19.8-4.28,.75-14.44,.63-19.04-.2-10.04-1.79-19.56-6.74-25.43-13.25-2.3-2.54-6.78-9.16-6.51-9.64,.12-.16,1.15-.79,2.3-1.47,1.11-.63,5.32-3.05,9.28-5.36l7.18-4.17,1.51,2.22c2.1,3.21,6.7,7.62,9.48,9.08,7.97,4.21,18.92,3.61,24.32-1.23,2.3-2.1,3.25-4.28,3.25-7.5,0-2.9-.36-4.17-1.86-6.35-1.94-2.78-5.91-5.12-17.18-10-12.89-5.55-18.45-9.01-23.52-14.48-2.94-3.17-5.71-8.25-6.86-12.5-.95-3.53-1.19-12.38-.44-15.95,2.66-12.46,12.06-21.14,25.63-23.72,4.4-.83,14.64-.52,18.96,.56Z"/>
  </g>
</svg>