<?xml version="1.0" encoding="UTF-8"?>
<svg id="Layer_1" data-name="Layer 1" xmlns="http://www.w3.org/2000/svg" viewBox="0 0 239.15 245.15">
  <defs>
    <style>
      .cls-1 {
        fill: none;
        stroke: #394b68;
        stroke-miterlimit: 10;
        stroke-width: 15px;
      }
    </style>
  </defs>
  <path class="cls-1" d="M228.15,104.8l-27.49-6.44c-1.74-6.15-4.11-12.03-7.07-17.54l15-24.51c1.12-1.83,.86-4.2-.63-5.73l-18.28-18.77c-1.49-1.53-3.8-1.79-5.58-.64l-23.87,15.4c-5.36-3.03-11.09-5.47-17.08-7.26l-6.27-28.23c-.47-2.1-2.29-3.59-4.39-3.59h-25.85c-2.1,0-3.92,1.49-4.39,3.59l-6.27,28.23c-5.99,1.79-11.72,4.22-17.08,7.26l-23.87-15.4c-1.78-1.15-4.09-.88-5.58,.64l-18.28,18.77c-1.49,1.53-1.75,3.9-.63,5.73l15,24.51c-2.95,5.51-5.33,11.38-7.07,17.54l-27.49,6.44c-2.05,.48-3.5,2.35-3.5,4.51v26.54c0,2.16,1.45,4.03,3.5,4.51l27.49,6.44c1.74,6.15,4.11,12.03,7.07,17.54l-15,24.51c-1.12,1.83-.86,4.2,.63,5.73l18.28,18.77c1.49,1.52,3.8,1.79,5.58,.64l23.87-15.4c5.36,3.03,11.09,5.47,17.08,7.26l6.27,28.23c.47,2.1,2.29,3.6,4.39,3.6h25.85c2.1,0,3.92-1.49,4.39-3.6l6.27-28.23c5.99-1.79,11.72-4.22,17.08-7.26l23.87,15.4c1.78,1.15,4.09,.88,5.58-.64l18.28-18.77c1.49-1.53,1.75-3.9,.63-5.73l-15-24.51c2.95-5.51,5.33-11.38,7.07-17.54l27.49-6.44c2.05-.48,3.5-2.35,3.5-4.51v-26.54c0-2.16-1.45-4.03-3.5-4.51Zm-108.57,70.65c-28.44,0-51.5-23.67-51.5-52.87s23.06-52.87,51.5-52.87,51.49,23.67,51.49,52.87-23.05,52.87-51.49,52.87Z"/>
</svg>