<?xml version="1.0" encoding="UTF-8"?>
<svg id="Layer_1" data-name="Layer 1" xmlns="http://www.w3.org/2000/svg" viewBox="0 0 213.28 218.99">
  <defs>
    <style>
      .cls-1 {
        fill: #394b68;
      }
    </style>
  </defs>
  <path class="cls-1" d="M209.94,92.58l-26.16-6.13c-1.66-5.85-3.91-11.45-6.72-16.69l14.27-23.32c1.06-1.74,.82-4-.6-5.45l-17.39-17.86c-1.41-1.45-3.62-1.71-5.31-.61l-22.71,14.65c-5.1-2.89-10.55-5.2-16.25-6.9l-5.97-26.86c-.44-2-2.18-3.42-4.18-3.42h-24.59c-2,0-3.73,1.42-4.18,3.42l-5.97,26.86c-5.7,1.7-11.15,4.02-16.25,6.9l-22.71-14.65c-1.69-1.09-3.9-.84-5.31,.61l-17.39,17.86c-1.41,1.45-1.66,3.71-.6,5.45l14.27,23.32c-2.81,5.24-5.07,10.83-6.72,16.69l-26.16,6.13c-1.95,.46-3.33,2.24-3.33,4.29v25.25c0,2.05,1.38,3.83,3.33,4.29l26.16,6.13c1.66,5.86,3.91,11.45,6.72,16.69l-14.27,23.32c-1.06,1.74-.82,4,.6,5.45l17.39,17.86c1.41,1.45,3.62,1.71,5.31,.61l22.71-14.65c5.1,2.88,10.55,5.2,16.25,6.9l5.97,26.86c.44,2,2.18,3.42,4.18,3.42h24.59c2,0,3.73-1.42,4.18-3.42l5.97-26.86c5.7-1.7,11.15-4.02,16.25-6.9l22.71,14.65c1.69,1.09,3.9,.84,5.31-.61l17.39-17.86c1.41-1.45,1.66-3.71,.6-5.45l-14.27-23.32c2.81-5.24,5.07-10.83,6.72-16.69l26.16-6.13c1.95-.46,3.33-2.24,3.33-4.29v-25.25c0-2.05-1.38-3.83-3.33-4.29Zm-103.31,67.22c-27.06,0-49-22.52-49-50.31s21.94-50.31,49-50.31,49,22.52,49,50.31-21.94,50.31-49,50.31Z"/>
</svg>