<?xml version="1.0" encoding="utf-8"?>
<!-- Generator: Adobe Illustrator 26.4.0, SVG Export Plug-In . SVG Version: 6.00 Build 0)  -->
<svg version="1.1" id="Layer_1" xmlns="http://www.w3.org/2000/svg" xmlns:xlink="http://www.w3.org/1999/xlink" x="0px" y="0px"
	 viewBox="0 0 20 12" style="enable-background:new 0 0 20 12;" xml:space="preserve">
<style type="text/css">
	.st0{fill-rule:evenodd;clip-rule:evenodd;fill:#B7C2D7;}
	.st1{fill:none;stroke:#B7C2D7;stroke-width:0.75;stroke-miterlimit:2;}
</style>
<path class="st0" d="M6.5,2.6c-0.6,0-1.1-0.5-1.1-1.1v9c0,0.6,0.5,1.1,1.1,1.1h7.6c0.3,0,0.5-0.2,0.5-0.5v-8c0-0.3-0.2-0.5-0.5-0.5
	H6.5z M11.5,5.5H8v0.8h3.5V5.5z"/>
<path class="st1" d="M5.4,1.5c0-0.6,0.5-1.1,1.1-1.1h7.1c0.3,0,0.5,0.2,0.5,0.5v1.8"/>
<path class="st1" d="M5.4,1.5c0,0.6,0.5,1.1,1.1,1.1h7.6c0.3,0,0.5,0.2,0.5,0.5v8c0,0.3-0.2,0.5-0.5,0.5H6.5c-0.6,0-1.1-0.5-1.1-1.1
	V1.5z"/>
</svg>
