<?xml version="1.0" encoding="UTF-8"?>
<svg id="Layer_1" data-name="Layer 1" xmlns="http://www.w3.org/2000/svg" viewBox="0 0 239.9 191.49">
  <defs>
    <style>
      .cls-1 {
        fill: #394b68;
        stroke: #394b68;
        stroke-miterlimit: 10;
        stroke-width: 10px;
      }
    </style>
  </defs>
  <path class="cls-1" d="M213.23,186.49H26.67c-11.95,0-21.67-9.72-21.67-21.67V26.67C5,14.72,14.72,5,26.67,5h61.03c5.24,0,10.31,1.9,14.26,5.35l24.93,21.79c2.13,1.86,4.85,2.88,7.68,2.88h78.67c11.95,0,21.67,9.72,21.67,21.67v108.13c0,11.95-9.72,21.67-21.67,21.67ZM26.67,15c-6.43,0-11.67,5.23-11.67,11.67V164.82c0,6.43,5.23,11.67,11.67,11.67H213.23c6.43,0,11.67-5.23,11.67-11.67V56.69c0-6.43-5.23-11.67-11.67-11.67h-78.67c-5.24,0-10.31-1.9-14.26-5.35l-24.93-21.79c-2.13-1.86-4.85-2.88-7.68-2.88H26.67Z"/>
</svg>