<?xml version="1.0" encoding="UTF-8"?>
<svg id="Layer_1" data-name="Layer 1" xmlns="http://www.w3.org/2000/svg" viewBox="0 0 244.9 196.49">
  <defs>
    <style>
      .cls-1 {
        fill: #394b68;
        stroke: #394b68;
        stroke-miterlimit: 10;
        stroke-width: 15px;
      }
    </style>
  </defs>
  <path class="cls-1" d="M215.73,188.99H29.17c-11.95,0-21.67-9.72-21.67-21.67V29.17c0-11.95,9.72-21.67,21.67-21.67h61.03c5.24,0,10.31,1.9,14.26,5.35l24.93,21.79c2.13,1.86,4.85,2.88,7.68,2.88h78.67c11.95,0,21.67,9.72,21.67,21.67v108.13c0,11.95-9.72,21.67-21.67,21.67ZM29.17,17.5c-6.43,0-11.67,5.23-11.67,11.67V167.32c0,6.43,5.23,11.67,11.67,11.67H215.73c6.43,0,11.67-5.23,11.67-11.67V59.19c0-6.43-5.23-11.67-11.67-11.67h-78.67c-5.24,0-10.31-1.9-14.26-5.35l-24.93-21.79c-2.13-1.86-4.85-2.88-7.68-2.88H29.17Z"/>
</svg>