<?xml version="1.0" encoding="UTF-8"?>
<svg id="Layer_1" data-name="Layer 1" xmlns="http://www.w3.org/2000/svg" viewBox="0 0 193.84 190.61">
  <defs>
    <style>
      .cls-1 {
        fill: #3a4b68;
        fill-rule: evenodd;
      }
    </style>
  </defs>
  <path class="cls-1" d="M97,0C43.36,0,0,43.68,0,97.72c0,43.2,27.78,79.76,66.33,92.7,4.82,.97,6.58-2.1,6.58-4.69,0-2.27-.16-10.03-.16-18.12-26.98,5.83-32.6-11.65-32.6-11.65-4.34-11.33-10.76-14.24-10.76-14.24-8.83-5.99,.64-5.99,.64-5.99,9.8,.65,14.94,10.03,14.94,10.03,8.67,14.88,22.64,10.68,28.26,8.09,.8-6.31,3.37-10.68,6.1-13.1-21.52-2.27-44.16-10.68-44.16-48.21,0-10.68,3.85-19.41,9.96-26.21-.96-2.43-4.34-12.46,.96-25.89,0,0,8.19-2.59,26.66,10.03,7.91-2.14,16.06-3.23,24.25-3.24,8.19,0,16.54,1.13,24.25,3.24,18.47-12.62,26.66-10.03,26.66-10.03,5.3,13.43,1.93,23.46,.96,25.89,6.26,6.79,9.96,15.53,9.96,26.21,0,37.54-22.64,45.79-44.32,48.21,3.53,3.07,6.58,8.9,6.58,18.12,0,13.1-.16,23.62-.16,26.86,0,2.59,1.77,5.66,6.58,4.69,38.54-12.95,66.33-49.51,66.33-92.71C194,43.68,150.48,0,97,0Z"/>
</svg>