<?xml version="1.0" encoding="UTF-8"?>
<svg id="Layer_1" data-name="Layer 1" xmlns="http://www.w3.org/2000/svg" viewBox="0 0 214.91 214.91">
  <defs>
    <style>
      .cls-1 {
        fill: #394b68;
      }
    </style>
  </defs>
  <path class="cls-1" d="M107.46,214.91c-28.7,0-55.69-11.18-75.98-31.47C11.18,163.14,0,136.16,0,107.46S11.18,51.77,31.47,31.47C51.77,11.18,78.75,0,107.46,0s55.69,11.18,75.98,31.47c20.3,20.3,31.47,47.28,31.47,75.98s-11.18,55.69-31.47,75.98c-20.3,20.3-47.28,31.47-75.98,31.47Zm0-195.24c-48.41,0-87.79,39.38-87.79,87.79s39.38,87.79,87.79,87.79,87.79-39.38,87.79-87.79S155.86,19.67,107.46,19.67Z"/>
  <g>
    <polygon class="cls-1" points="121.32 153.06 121.32 94.61 121.32 80.86 83.27 80.86 83.27 94.61 93.59 94.61 93.59 153.06 83.27 153.06 83.27 169.89 131.65 169.89 131.65 153.06 121.32 153.06"/>
    <circle class="cls-1" cx="107.46" cy="58.89" r="13.86" transform="translate(-10.65 26.26) rotate(-13.28)"/>
  </g>
</svg>