<?xml version="1.0" encoding="UTF-8"?>
<svg id="Layer_1" data-name="Layer 1" xmlns="http://www.w3.org/2000/svg" viewBox="0 0 222 222">
  <defs>
    <style>
      .cls-1 {
        fill: #394b68;
      }
    </style>
  </defs>
  <path class="cls-1" d="M213.27,67.79c-5.59-13.22-13.59-25.09-23.78-35.28-10.19-10.19-22.06-18.19-35.28-23.78C140.52,2.94,125.98,0,111,0s-29.52,2.94-43.21,8.73c-13.22,5.59-25.09,13.59-35.28,23.78-10.19,10.19-18.19,22.06-23.78,35.28C2.94,81.48,0,96.02,0,111s2.94,29.52,8.73,43.21c5.59,13.22,13.59,25.09,23.78,35.28,10.19,10.19,22.06,18.19,35.28,23.78,13.69,5.79,28.23,8.73,43.21,8.73s29.52-2.94,43.21-8.73c13.22-5.59,25.09-13.59,35.28-23.78,10.19-10.19,18.19-22.06,23.78-35.28,5.79-13.69,8.73-28.23,8.73-43.21s-2.94-29.52-8.73-43.21Zm-102.27-21.29c7.91,0,14.32,6.41,14.32,14.32s-6.41,14.32-14.32,14.32-14.32-6.41-14.32-14.32,6.41-14.32,14.32-14.32Zm24.99,128.99h-49.98v-17.39h10.67v-60.37h-10.67v-14.21h39.31v74.58h10.67v17.39Z"/>
</svg>