<?xml version="1.0" encoding="UTF-8"?>
<svg id="Layer_1" data-name="Layer 1" xmlns="http://www.w3.org/2000/svg" viewBox="0 0 242.54 242.54">
  <defs>
    <style>
      .cls-1 {
        fill: #394b68;
      }
    </style>
  </defs>
  <path class="cls-1" d="M121.27,0C54.29,0,0,54.29,0,121.27c0,33.46,13.55,63.75,35.46,85.69,6.5-31.36,29.75-56.58,59.98-65.89-18.42-9.41-31.03-28.57-31.03-50.67,0-31.4,25.46-56.86,56.86-56.86s56.86,25.46,56.86,56.86c0,22.1-12.61,41.26-31.03,50.67,30.23,9.31,53.48,34.53,59.98,65.89,21.91-21.94,35.46-52.23,35.46-85.69C242.54,54.29,188.25,0,121.27,0Z"/>
  <path class="cls-1" d="M138.39,130.93c5.24-2.21,9.94-5.39,13.98-9.43,4.04-4.04,7.22-8.75,9.43-13.98,2.29-5.41,3.45-11.17,3.45-17.12s-1.16-11.7-3.45-17.12c-2.21-5.24-5.39-9.94-9.43-13.98-4.04-4.04-8.75-7.22-13.98-9.43-5.41-2.29-11.17-3.45-17.12-3.45s-11.7,1.16-17.12,3.45c-5.24,2.21-9.94,5.39-13.98,9.43-4.04,4.04-7.22,8.75-9.43,13.98-2.29,5.41-3.45,11.17-3.45,17.12s1.16,11.7,3.45,17.12c2.21,5.24,5.39,9.94,9.43,13.98,4.04,4.04,8.75,7.22,13.98,9.43,5.41,2.29,11.17,3.45,17.12,3.45s11.7-1.16,17.12-3.45Z"/>
  <path class="cls-1" d="M183.27,183.05c-2.68-3.96-5.75-7.69-9.14-11.07-3.39-3.39-7.11-6.46-11.07-9.14-4-2.7-8.27-5.02-12.69-6.89-9.21-3.89-19-5.87-29.1-5.87s-19.89,1.97-29.1,5.87c-4.43,1.87-8.7,4.19-12.69,6.89-3.96,2.68-7.69,5.75-11.07,9.14-3.39,3.39-6.46,7.11-9.14,11.07-2.7,4-5.02,8.27-6.89,12.69-2.89,6.83-4.72,13.97-5.47,21.33,20.53,15.96,46.34,25.47,74.36,25.47s53.82-9.51,74.36-25.47c-.75-7.35-2.58-14.5-5.47-21.33-1.87-4.43-4.19-8.7-6.89-12.69Z"/>
</svg>