<?xml version="1.0" encoding="UTF-8"?>
<svg id="Layer_1" data-name="Layer 1" xmlns="http://www.w3.org/2000/svg" viewBox="0 0 241.86 241.86">
  <defs>
    <style>
      .cls-1 {
        fill: #394b68;
        stroke: #394b68;
        stroke-miterlimit: 10;
        stroke-width: 5px;
      }
    </style>
  </defs>
  <path class="cls-1" d="M230.05,74.83c-5.97-14.1-14.5-26.77-25.38-37.64-10.87-10.87-23.54-19.41-37.64-25.38-14.6-6.18-30.11-9.31-46.1-9.31s-31.5,3.13-46.1,9.31c-14.1,5.97-26.77,14.5-37.64,25.38-10.87,10.87-19.41,23.54-25.38,37.64-6.18,14.6-9.31,30.11-9.31,46.1s3.13,31.5,9.31,46.1c5.97,14.1,14.5,26.77,25.38,37.64,10.87,10.87,23.54,19.41,37.64,25.38,14.6,6.18,30.11,9.31,46.1,9.31s31.5-3.13,46.1-9.31c14.1-5.97,26.77-14.5,37.64-25.38,10.87-10.87,19.41-23.54,25.38-37.64,6.18-14.6,9.31-30.11,9.31-46.1s-3.13-31.5-9.31-46.1ZM120.93,228.6c-25.12,0-48.26-8.65-66.6-23.12,.21-.51,.35-1.05,.4-1.63,.64-6.71,2.28-13.24,4.92-19.46,1.67-3.94,3.73-7.74,6.13-11.29,2.38-3.52,5.11-6.84,8.13-9.85,3.01-3.01,6.33-5.75,9.85-8.13,3.55-2.4,7.35-4.46,11.29-6.13,8.19-3.46,16.9-5.22,25.88-5.22s17.69,1.76,25.88,5.22c3.94,1.67,7.74,3.73,11.29,6.13,3.52,2.38,6.84,5.11,9.85,8.13,3.01,3.01,5.75,6.33,8.13,9.85,2.4,3.55,4.46,7.35,6.13,11.29,2.63,6.22,4.28,12.75,4.92,19.46,.05,.57,.19,1.12,.4,1.63-18.34,14.47-41.48,23.12-66.6,23.12Zm-15.22-101.86c-4.66-1.97-8.84-4.79-12.44-8.39-3.6-3.6-6.42-7.78-8.39-12.44-2.04-4.82-3.07-9.94-3.07-15.22s1.03-10.41,3.07-15.22c1.97-4.66,4.79-8.84,8.39-12.44,3.6-3.6,7.78-6.42,12.44-8.39,4.82-2.04,9.94-3.07,15.22-3.07s10.41,1.03,15.22,3.07c4.66,1.97,8.84,4.79,12.44,8.39,3.6,3.6,6.42,7.78,8.39,12.44,2.04,4.82,3.07,9.94,3.07,15.22s-1.03,10.41-3.07,15.22c-1.97,4.66-4.79,8.84-8.39,12.44-3.6,3.6-7.78,6.42-12.44,8.39-4.82,2.04-9.94,3.07-15.22,3.07s-10.41-1.03-15.22-3.07Zm91.94,69.66c-5.18-28.83-26.21-52.16-53.75-60.64,16.39-8.37,27.6-25.41,27.6-45.07,0-27.93-22.64-50.58-50.58-50.58s-50.58,22.64-50.58,50.58c0,19.66,11.22,36.7,27.6,45.07-27.54,8.48-48.57,31.81-53.75,60.64-19.13-19.45-30.96-46.11-30.96-75.48C13.25,61.56,61.56,13.25,120.93,13.25s107.68,48.3,107.68,107.68c0,29.37-11.82,56.03-30.96,75.48Z"/>
</svg>