<?xml version="1.0" encoding="UTF-8"?>
<svg id="Layer_1" data-name="Layer 1" xmlns="http://www.w3.org/2000/svg" viewBox="0 0 239.76 239.98">
  <defs>
    <style>
      .cls-1 {
        fill: #394b68;
      }
    </style>
  </defs>
  <path class="cls-1" d="M229.42,133.68l-51.79,27.76c-4.77,2.56-4.98,9.31-.38,12.16l12.94,8.03c-25.83,29.31-68.51,40.34-106.42,24.31-28.46-12.03-49.09-37.34-55.18-67.68-1.45-7.22-8.48-11.9-15.7-10.45-7.22,1.45-11.9,8.48-10.45,15.7,7.83,39,34.35,71.52,70.94,86.99,15.21,6.43,31.01,9.47,46.57,9.47,35.78,0,70.26-16.1,93.15-44.13l14.09,8.74c4.6,2.85,10.56-.34,10.73-5.75l1.85-58.74c.17-5.41-5.58-8.97-10.34-6.41Z"/>
  <path class="cls-1" d="M237.78,96.46c-7.83-39-34.35-71.51-70.94-86.98C116.7-11.73,60.07,3.89,27.21,44.02l-14.63-9.07c-4.6-2.85-10.56,.34-10.73,5.75L0,99.44c-.17,5.41,5.58,8.97,10.34,6.41l51.79-27.76c4.77-2.56,4.98-9.31,.38-12.16l-12.4-7.69c25.84-29.23,68.46-40.21,106.33-24.2,28.46,12.03,49.09,37.33,55.18,67.68,1.27,6.33,6.84,10.71,13.06,10.71,.87,0,1.75-.09,2.64-.26,7.22-1.45,11.9-8.48,10.45-15.7Z"/>
</svg>