<?xml version="1.0" encoding="UTF-8"?>
<svg id="Layer_1" data-name="Layer 1" xmlns="http://www.w3.org/2000/svg" viewBox="0 0 237.98 237.98">
  <defs>
    <style>
      .cls-1 {
        fill: none;
        stroke: #394b68;
        stroke-miterlimit: 10;
        stroke-width: 10px;
      }
    </style>
  </defs>
  <path class="cls-1" d="M30.52,30.52C47.54,13.51,69.84,5,92.14,5s44.6,8.51,61.62,25.52c17.01,17.01,25.52,39.32,25.52,61.62,0,19.3-6.38,38.6-19.12,54.48l70.02,70.02c3.74,3.74,3.74,9.8,0,13.54-3.74,3.74-9.8,3.74-13.54,0l-70.02-70.02c-15.88,12.74-35.18,19.12-54.48,19.12-22.3,0-44.6-8.51-61.62-25.52C13.51,136.75,5,114.44,5,92.14S13.51,47.54,30.52,30.52h0Zm61.62-6.37c-17.4,0-34.8,6.64-48.08,19.91-13.28,13.27-19.91,30.67-19.91,48.08s6.64,34.8,19.91,48.08c13.27,13.27,30.67,19.91,48.08,19.91s34.8-6.64,48.08-19.91c13.27-13.28,19.91-30.67,19.91-48.08s-6.64-34.8-19.91-48.08c-13.28-13.28-30.67-19.91-48.08-19.91h0Z"/>
</svg>